<svg width="695" height="121" viewBox="0 0 695 121" fill="none" xmlns="http://www.w3.org/2000/svg">
<g clip-path="url(#clip0_3_187)">
<mask id="mask0_3_187" style="mask-type:luminance" maskUnits="userSpaceOnUse" x="0" y="0" width="695" height="121">
<path d="M695 0H0V121H695V0Z" fill="white"/>
</mask>
<g mask="url(#mask0_3_187)">
<path d="M7.80129 100.678C7.58651 95.6368 7.05813 90.6189 6.21614 85.6243C5.51934 80.4608 5.28134 75.1054 4.74134 69.9304C3.58016 54.2134 2.27378 38.6651 1.1126 22.9481C0.735162 19.9734 0.996564 17.1096 1.72839 14.2111C2.20465 12.1215 3.34297 10.4571 5.63699 9.49751C8.38981 8.34596 11.0207 7.67749 14.0116 7.61456C17.1709 7.6972 20.2257 6.36531 23.5651 6.7507C28.9661 7.29985 34.2743 6.59162 39.6289 6.51208C44.5247 6.62445 49.5889 6.88242 54.1188 8.44409C59.4443 10.105 64.2587 13.384 68.7711 16.8432C69.7816 17.7168 70.5133 19.0849 71.0767 20.3076C75.1998 29.1686 75.3913 38.162 71.6394 47.1308C70.5824 49.8953 69.2233 52.8402 67.179 55.0456C66.0175 56.3957 66.2207 57.0128 67.7016 57.8515C75.083 61.731 79.0204 68.0773 81.3142 75.6512C82.7602 80.2852 83.1202 85.1575 82.6729 89.7733C82.1385 95.3438 80.4832 100.681 77.8523 105.616C74.5418 112.024 68.6238 115.148 61.9161 116.117C56.9215 116.802 52.287 118.093 47.6526 119.383C44.4061 120.255 41.2932 120.801 38.1223 120.562C32.878 120.001 27.5467 120.395 22.3721 120.777C19.0792 121.02 16.1638 119.972 13.0916 118.934C10.5131 118.177 8.96247 116.395 8.75346 113.566C8.43994 109.322 8.12642 105.079 7.80129 100.678ZM30.8578 84.1198C31.0087 86.163 30.8925 88.858 31.6823 91.0121C32.4953 93.4805 33.0122 94.0744 35.6779 93.8775C39.9116 93.5647 44.1569 93.4091 48.3558 92.6247C51.4571 91.9215 54.0415 90.6244 56.5795 88.6986C58.525 87.2906 58.8561 85.3698 58.0779 83.373C57.445 81.2073 56.4984 79.0649 55.4066 77.0912C53.9199 74.0404 48.5015 71.1222 45.4002 71.8254C42.7694 72.4938 40.0921 72.5336 37.3799 72.1019C35.9455 71.8918 34.5574 72.3104 33.1462 72.4147C31.4213 72.5421 30.8522 73.3743 30.8231 75.1147C30.8869 78.1126 30.7184 82.2337 30.8578 84.1198ZM34.4538 28.2282C33.2226 28.6352 31.521 29.077 29.9878 29.6644C27.5253 30.4784 26.6542 31.4909 27.322 34.1281C28.4544 38.7852 28.8027 43.5004 29.1511 48.2155C29.2904 50.1015 30.1209 50.6723 31.8458 50.5448C38.118 50.0814 43.1067 47.1844 47.509 42.7504C48.5253 41.5691 48.7577 40.4458 48.4847 38.8857C47.7531 33.2507 40.7144 27.6076 34.4538 28.2282Z" fill="black"/>
<path d="M195.44 96.5856C195.905 91.9596 196.08 87.3136 195.966 82.6477C196.007 77.8469 196.491 72.9311 196.676 68.1402C197.676 53.6527 198.521 39.3001 199.52 24.8126C199.565 22.05 200.179 19.4722 201.226 16.9243C201.934 15.0808 203.19 13.7118 205.408 13.137C208.07 12.4472 210.557 12.1821 213.293 12.5164C216.164 13.0056 219.125 12.1909 222.12 12.9798C226.975 14.188 231.909 14.2373 236.803 14.8661C241.254 15.6098 245.839 16.5084 249.766 18.526C254.406 20.7385 258.368 24.3597 262.031 28.106C262.838 29.035 263.326 30.3788 263.68 31.5677C266.28 40.1898 265.277 48.4178 260.68 56.1067C259.354 58.4898 257.728 60.9979 255.575 62.7417C254.339 63.8209 254.443 64.4104 255.684 65.3693C261.909 69.8745 264.669 76.1787 265.769 83.3872C266.481 87.8033 266.171 92.2944 265.158 96.4459C263.941 101.457 261.733 106.108 258.687 110.265C254.828 115.676 249.021 117.75 242.776 117.755C238.131 117.726 233.734 118.296 229.338 118.866C226.263 119.237 223.352 119.327 220.492 118.693C215.782 117.494 210.867 117.155 206.098 116.826C203.062 116.617 200.541 115.279 197.874 113.93C195.622 112.901 194.441 111.073 194.621 108.465C194.891 104.554 195.16 100.642 195.44 96.5856ZM218.639 84.5029C218.509 86.3862 218.05 88.8292 218.488 90.8973C218.906 93.2552 219.3 93.8646 221.757 94.0341C225.659 94.3033 229.552 94.7174 233.485 94.552C236.405 94.3168 238.932 93.4722 241.499 92.0481C243.458 91.0187 244.012 89.3101 243.564 87.3868C243.27 85.3287 242.687 83.2506 241.95 81.3074C240.994 78.3301 236.434 74.9587 233.513 75.1939C231.026 75.459 228.579 75.1446 226.161 74.3956C224.881 74.0161 223.56 74.2162 222.259 74.1264C220.669 74.0167 220.041 74.7012 219.786 76.2849C219.452 79.0275 218.758 82.7644 218.639 84.5029ZM229.239 33.9954C228.063 34.2054 226.453 34.3855 224.977 34.7204C222.625 35.1404 221.698 35.9498 221.961 38.4426C222.384 42.8387 222.084 47.1849 221.784 51.5312C221.665 53.2697 222.347 53.8991 223.937 54.0087C229.719 54.4076 234.648 52.4186 239.244 48.951C240.326 48.0067 240.685 47.0125 240.641 45.5538C240.711 40.3183 235.03 34.2494 229.239 33.9954Z" fill="black"/>
<path d="M454.496 92.8257C454.541 88.6489 454.326 84.4775 453.851 80.3113C453.503 76.012 453.543 71.5744 453.326 67.2725C453.061 54.2285 452.669 41.3175 452.404 28.2735C452.223 25.7978 452.566 23.4419 453.299 21.0781C453.785 19.3718 454.8 18.0463 456.739 17.3544C459.065 16.5242 461.27 16.088 463.745 16.1682C466.353 16.3762 468.937 15.4103 471.681 15.8766C476.121 16.5694 480.54 16.2186 484.97 16.3897C489.013 16.699 493.188 17.1362 496.863 18.6275C501.192 20.2361 505.027 23.1595 508.604 26.2188C509.401 26.9855 509.946 28.1489 510.357 29.1845C513.374 36.6919 513.134 44.135 509.636 51.3832C508.64 53.6218 507.386 55.9962 505.599 57.7289C504.579 58.7936 504.72 59.3127 505.907 60.0715C511.837 63.6049 514.812 69.0253 516.373 75.3878C517.363 79.2825 517.445 83.3262 516.872 87.1222C516.183 91.7034 514.579 96.0423 512.186 100.006C509.166 105.156 504.136 107.477 498.548 107.982C494.389 108.327 490.5 109.189 486.612 110.051C483.89 110.628 481.292 110.942 478.682 110.604C474.371 109.908 469.947 109.998 465.652 110.085C462.919 110.141 460.555 109.145 458.062 108.152C455.964 107.411 454.761 105.87 454.713 103.522C454.641 99.9999 454.57 96.478 454.496 92.8257ZM474.288 80.1573C474.322 81.853 474.107 84.0758 474.665 85.8914C475.228 87.9678 475.629 88.4817 477.841 88.4367C481.355 88.3654 484.871 88.4245 488.377 87.9618C490.972 87.5176 493.165 86.5596 495.349 85.0798C497.019 84.002 497.378 82.4288 496.823 80.7436C496.395 78.9254 495.708 77.1124 494.892 75.4325C493.798 72.8449 489.448 70.1928 486.853 70.637C484.649 71.0733 482.434 70.9877 480.211 70.5109C479.034 70.2738 477.868 70.5585 476.697 70.5823C475.266 70.6113 474.758 71.2741 474.657 72.7116C474.578 75.1926 474.256 78.592 474.288 80.1573ZM479.732 34.1128C478.696 34.3948 477.27 34.6847 475.977 35.1025C473.905 35.6665 473.14 36.465 473.576 38.6746C474.306 42.5746 474.385 46.4878 474.465 50.401C474.496 51.9663 475.158 52.4748 476.589 52.4458C481.795 52.3401 486.047 50.1658 489.882 46.6951C490.775 45.7635 491.016 44.8451 490.86 43.5434C490.504 38.8528 484.935 33.8766 479.732 34.1128Z" fill="black"/>
<path d="M187.172 58.86C187.172 61.02 187.172 63 187.172 65.16C187.352 74.7 183.392 82.8 178.712 90.9C174.032 99.36 167.192 105.84 160.172 112.14C156.932 115.02 152.792 116.1 148.832 117.72C139.112 121.68 129.212 120.42 119.312 118.8C114.992 117.9 111.572 115.92 108.692 112.5C105.452 108.54 102.212 104.58 100.232 99.72C99.872 98.46 98.972 97.38 98.072 96.12C94.112 90.54 91.952 84.06 89.612 77.58C85.652 67.32 86.732 56.88 88.172 46.44C89.252 40.14 91.052 34.2 93.752 28.44C97.172 21.24 102.212 15.48 108.692 10.98C115.892 5.94001 124.172 3.42001 132.092 0.360006C133.172 0 134.612 0 135.692 0C139.112 0 142.532 0.180008 145.772 0.180008C147.752 0.180008 149.552 0.90001 151.352 1.80001C154.592 3.60001 158.192 4.50001 161.612 5.76C167.552 7.92001 172.952 11.34 177.272 16.2C180.152 19.8 182.312 23.94 183.752 28.26C186.632 36.36 188.252 44.82 187.352 53.64C187.172 55.26 187.352 57.06 187.352 58.86C187.172 58.86 187.172 58.86 187.172 58.86ZM164.632 64.3C164.632 63.9809 165.418 60.6922 165.944 55.7707C166.084 54.4629 166.076 53.1339 165.684 51.8785C164.325 47.5348 160.489 40.9301 158.632 38.3C156.832 35.42 148.692 31.24 145.632 29.8C140.052 27.28 124.632 31.74 120.132 34.8C114.012 38.76 107.632 51.8 109.632 59.8C111.632 64.8 115.132 70.8 116.632 73.3C123.632 79.3 126.612 79.92 133.632 82.8C136.632 83.3 139.392 82.62 142.632 82.8C145.632 82.3 152.292 79.1 154.632 77.3C161.132 70.3 159.132 73.3 164.632 64.3Z" fill="black"/>
<path d="M552.232 53.1978C551.979 55.6323 552.105 58.157 551.725 60.5916C551.598 61.1326 551.725 61.6736 551.725 62.1245C551.979 63.8377 551.979 65.5509 551.598 67.1739C551.471 67.8051 551.344 68.4363 551.471 68.9773C552.486 72.8545 551.091 76.5514 550.837 80.3385C550.71 82.2321 550.71 84.2158 550.583 86.1093C550.33 91.5194 549.949 96.8394 549.695 102.25C549.569 105.496 547.92 106.758 543.353 107.389C540.816 107.75 538.406 107.389 535.996 107.209C534.728 107.028 533.333 106.848 531.937 106.758C529.02 106.578 527.117 105.135 526.737 102.971C526.61 102.7 526.61 102.43 526.61 102.25C526.483 95.8475 526.229 89.5357 526.103 83.1338C526.103 80.4287 525.849 77.7236 525.468 75.0186C525.088 71.2315 525.215 67.4444 525.595 63.6573C525.722 61.7638 525.976 59.9604 526.103 58.0669C526.229 56.6242 526.229 55.0913 526.483 53.6486C526.864 51.8452 526.737 50.132 526.737 48.3286C526.864 47.3368 526.737 46.3449 527.117 45.4433C527.751 43.0989 529.654 41.9267 532.952 41.7463C537.011 41.4758 541.197 41.4758 545.256 41.7463C550.583 42.107 552.359 44.3612 552.232 47.3368C552.105 49.3205 552.232 51.214 552.232 53.1978Z" fill="black"/>
<path d="M553.013 13.2599C553.52 15.1599 553.647 17.1866 553.647 18.8332C553.647 22.1266 553.393 25.1666 551.747 27.6999C547.313 35.0466 543.133 36.4399 534.9 34.7932C530.72 34.0332 527.3 31.7532 524.387 28.8399C522.613 26.8132 521.347 24.6599 521.473 21.8732C521.473 19.9732 521.473 18.0732 521.6 16.2999C522.107 9.83995 526.033 5.65995 531.227 2.74662C532.873 1.73328 534.773 1.60662 536.673 1.73328C543.513 2.11328 550.86 6.41995 553.013 13.2599Z" fill="black"/>
<path d="M583.36 77.7999C583.107 71.4666 582.853 66.0199 582.6 60.5733C582.473 57.2799 583.107 53.9866 582.727 50.6933C582.093 47.1466 580.827 45.6266 577.28 45.4999C574.367 45.3733 571.58 45.6266 568.793 45.7533C567.4 45.7533 566.133 45.3733 564.74 44.9933C561.573 44.1066 560.433 42.0799 560.053 38.7866C559.547 34.2266 559.42 29.6666 559.547 25.1066C559.673 23.8399 559.8 22.6999 560.687 21.6866C561.32 20.6733 562.207 20.0399 563.473 20.1666C564.107 20.1666 564.74 20.1666 565.247 20.1666C570.693 20.4199 575.887 20.0399 581.207 19.4066C589.187 18.5199 597.04 19.1533 604.893 19.2799C610.34 19.2799 615.787 19.5333 621.233 20.1666C625.16 20.6733 626.933 22.0666 627.693 25.9933C627.947 28.0199 627.947 30.1733 627.82 32.1999C627.567 34.4799 627.313 36.6333 627.06 38.9133C626.68 41.8266 625.16 43.3466 622.373 43.8533C618.193 44.4866 614.013 44.9933 609.833 45.4999C606.667 45.8799 606.16 46.2599 606.16 49.2999C606.287 54.9999 606.16 60.6999 605.907 66.3999C605.78 69.1866 606.287 71.9734 606.54 74.8867C607.047 80.4599 607.553 86.1599 607.933 91.8599C608.187 95.1533 607.933 98.4466 606.667 101.74C605.4 105.16 602.36 107.187 598.687 106.933C597.927 106.933 597.04 106.68 596.407 106.933C592.86 108.073 590.073 106.173 587.54 104.4C585.133 102.88 584.247 100.093 584.12 97.3066C584.12 90.4666 583.107 83.7533 583.36 77.7999Z" fill="black"/>
<path d="M674.613 100.78V100.907C668.28 100.907 662.327 101.033 656.247 102.173C653.207 102.807 649.913 103.06 646.62 102.68C640.287 102.047 637.373 97.2333 637.247 91.7867C637.247 89.5067 637.373 87.1 637.247 84.82C636.867 75.8267 636.107 66.96 636.36 58.0933C636.487 49.2267 636.613 40.4867 637.627 31.7467C637.88 28.8333 637.627 25.7933 637.753 22.88C637.88 21.4867 638.007 20.22 638.387 18.8267C639.4 15.7867 640.413 14.7733 643.58 14.52C644.593 14.3933 645.607 14.52 646.62 14.52C648.393 14.3933 650.04 14.52 651.813 14.0133C654.98 13 658.273 12.8733 661.693 13C664.227 13.1267 666.887 13.1267 669.42 12.62C673.6 11.7333 677.78 11.9867 681.96 12.7467C682.467 12.8733 682.973 13.1267 683.353 13C685.76 13 688.04 13.5067 690.193 14.6467C691.46 15.4067 693.613 14.9 694.12 16.1667C695.007 18.1933 695.387 20.4733 695.007 22.7533C694.5 25.0333 694.627 27.44 694.627 29.72C694.5 31.4933 694.627 33.2667 694.5 34.9133C694.373 37.0667 693.993 37.4467 691.84 37.4467C682.847 37.4467 673.727 37.9533 664.733 37.5733C663.847 37.5733 662.96 37.7 662.073 37.7C659.413 37.9533 658.02 39.0933 657.893 41.88C657.767 44.2867 657.893 46.82 657.893 49.3533C658.02 50.24 658.4 51 659.413 51.1267C661.567 51.2533 663.593 51.76 665.747 51.2533C670.56 50.24 675.627 51 680.567 51.2533C681.327 51.2533 682.087 51.5067 682.34 52.2667C682.72 54.04 683.86 55.6867 683.987 57.5867C683.987 60.3733 683.987 63.2867 683.987 66.0733C683.86 68.7333 682.72 69.8733 680.06 70.1267C678.793 70.2533 677.4 70.2533 676.007 70C672.84 69.3667 669.673 69.4933 666.507 70.1267C665.367 70.2533 664.353 70.38 663.213 70.2533C662.2 70.1267 661.187 70.1267 660.173 70.2533C658.653 70.38 658.02 71.0133 657.893 72.5333C657.893 73.2933 657.893 74.0533 657.893 74.8133C657.893 78.74 657.893 78.6133 661.82 78.74C667.647 78.8667 673.347 77.98 679.173 77.3467C682.087 77.0933 685.127 77.0933 688.04 77.22C691.46 77.3467 692.727 78.36 693.613 81.6533C694.88 86.4667 694.627 91.5333 693.74 96.3467C693.36 99.1333 691.46 100.273 688.42 100.653C683.733 101.16 679.047 101.16 674.613 100.78Z" fill="black"/>
<path d="M336.204 103.97C333.746 103.747 331.288 103.635 328.718 103.412C325.031 103.077 323.691 101.624 323.914 97.9372C324.137 94.5855 324.696 91.2338 325.925 87.9938C328.606 81.1786 330.729 74.2517 333.187 67.3248C333.969 64.9786 334.863 62.6324 335.869 60.2862C337.656 56.1524 338.103 51.6834 339.555 47.4379C341.12 43.0807 342.684 38.6117 344.248 34.1428C344.583 33.0255 345.142 31.9083 345.7 30.9028C348.046 26.9924 348.94 26.5455 353.521 25.9869C354.191 25.8752 354.973 25.8752 355.755 25.7634C359.442 25.0931 362.794 26.0986 366.146 27.6628C367.151 28.2214 367.822 29.1152 368.269 30.1207C369.721 33.3607 371.397 36.6007 373.296 39.6172C374.19 41.0697 374.749 42.6338 375.195 44.1979C377.542 51.2365 380.223 58.0517 383.24 64.8669C384.469 67.7717 385.251 70.9 386.591 73.8048C387.15 74.9221 387.709 76.151 388.379 77.2683C389.161 78.4972 389.831 79.9497 390.278 81.4021C391.395 84.7538 392.513 87.9938 393.518 91.3455C394.412 93.9152 394.412 96.4848 393.965 99.0545C393.63 100.954 392.624 102.183 390.502 102.406C388.044 102.63 385.697 103.3 383.351 103.635C382.457 103.747 381.452 103.747 380.446 103.747C378.547 103.747 376.871 102.853 376.201 101.289C375.307 99.2779 373.743 97.9372 372.961 95.9262C372.179 94.1386 370.838 92.9097 368.604 93.4683C367.486 93.6917 366.369 93.4683 365.364 93.1331C364.358 92.9097 363.464 92.9097 362.459 93.0214C361.453 93.2448 360.448 93.3566 359.554 93.2448C356.314 92.6862 353.186 93.6917 350.057 92.9097C349.052 92.6862 348.493 93.4683 348.158 94.3621C347.6 95.8145 347.041 97.1552 346.371 98.6076C346.259 99.0545 346.147 99.3897 345.924 99.8365C344.248 102.63 342.237 104.641 338.55 104.082C337.768 103.859 336.986 103.97 336.204 103.97ZM355.085 74.2517C356.426 74.2517 358.437 74.0283 358.995 74.0283C359.554 74.0283 359.889 74.0283 360.336 74.0283C363.241 73.9165 364.246 72.5759 363.8 69.671C363.688 69.3359 363.576 69.0007 363.464 68.7772C363.017 63.8614 360.783 59.6159 359.107 55.1469C358.884 54.7 358.66 54.1414 357.99 54.1414C357.208 54.0297 356.873 54.5883 356.649 55.2586C355.085 60.1745 353.856 65.0903 352.962 70.1179C352.851 70.7883 352.851 71.4586 352.851 72.129C352.851 73.4697 353.744 74.2517 355.085 74.2517Z" fill="black"/>
<path d="M315.313 60.978C315.403 63.457 315.059 65.7806 315.149 68.2597C314.994 69.8161 314.828 71.4837 314.551 73.1403C314.363 75.0302 313.596 75.9644 311.94 75.6871C308.504 75.2328 304.936 76.1125 301.567 74.9911C299.177 74.1916 296.609 74.0482 294.141 74.027C290.116 73.8508 291.145 73.3918 287.054 73.8826C283.986 74.2508 282.774 73.9055 279.55 73.5845C277.76 73.5185 277.048 72.774 276.77 71.0621C276.625 70.2617 276.591 69.4724 276.669 68.6942C276.956 64.6809 277.688 60.7118 278.309 56.7317C278.686 55.1974 279.553 54.3855 281.154 54.0958C282.643 53.795 284.222 53.7276 285.656 53.9827C288.313 54.3596 288.902 54.1937 291.592 54.2371C295.172 54.369 293.754 54.2278 297.312 54.5821C298.757 54.726 300.18 55.0923 301.537 55.0028C305.15 54.8012 308.429 55.6892 311.809 56.6994C314.645 57.5431 315.034 58.1433 315.313 60.978Z" fill="black"/>
<path d="M437.54 58.1927C437.997 60.6309 438.002 62.9798 438.459 65.418C438.536 66.9802 438.62 68.654 438.591 70.3333C438.686 72.2303 438.066 73.2679 436.387 73.2396C432.922 73.3002 429.524 74.6999 426.026 74.091C423.543 73.6553 420.983 73.8947 418.539 74.24C414.533 74.6632 415.482 74.0567 411.509 75.1493C408.53 75.9688 407.28 75.8073 404.044 75.9684C402.264 76.1689 401.45 75.5383 400.92 73.8867C400.658 73.1167 400.508 72.3412 400.469 71.5601C400.157 67.5485 400.292 63.5148 400.315 59.4866C400.46 57.9132 401.197 56.9817 402.737 56.4575C404.165 55.939 405.717 55.638 407.173 55.6774C409.856 55.6557 410.414 55.4042 413.081 55.0477C416.641 54.6467 415.218 54.7176 418.788 54.5398C420.239 54.4676 421.701 54.6186 423.029 54.3287C426.572 53.593 429.947 53.9843 433.44 54.4816C436.369 54.8951 436.843 55.4308 437.54 58.1927Z" fill="black"/>
<path d="M139.595 59.1036C146.751 58.8515 153.693 63.8557 157.855 70.5002C158.101 69.9019 158.713 69.3734 160.038 69.0682C161.27 68.7843 162.032 68.9438 162.521 69.3137C164.417 65.8112 165.555 61.9491 165.861 57.9783C166.167 54.0074 165.635 50.0166 164.298 46.2648C164.559 46.9929 164.79 47.7342 164.991 48.4888C164.915 48.4735 164.838 48.4571 164.758 48.4389C161.622 47.7163 161.785 45.9611 162.108 44.5574C162.252 43.9274 162.47 43.3167 162.758 42.7379C162.817 42.8511 162.875 42.9647 162.932 43.0787C162.669 42.5559 162.39 42.0427 162.096 41.539C162.259 41.8176 162.417 42.099 162.57 42.3835C161.994 42.9644 161.034 43.266 159.341 42.8758C156.205 42.1533 156.367 40.3981 156.69 38.9943C156.925 37.9573 157.363 36.9771 157.979 36.11C158.541 36.6911 159.078 37.2956 159.589 37.9234C158.8 36.9542 157.947 36.0379 157.037 35.1807C157.088 35.229 157.139 35.2774 157.19 35.326C157.134 37.0888 156.601 39.0316 152.751 39.0316C148.609 39.0316 148.305 36.7834 148.305 34.9295C148.305 32.7655 148.944 31.1081 149.495 30.0798C149.579 30.1186 149.663 30.1579 149.747 30.1976C148.392 29.5545 146.987 29.0209 145.547 28.6018C145.982 28.7283 146.412 28.8648 146.838 29.0114C147.366 30.1742 147.868 31.8154 147.868 33.8547C147.868 35.9497 147.525 38.4901 142.845 38.4901C138.165 38.4901 137.822 35.9497 137.822 33.8547C137.822 30.7038 139.019 28.5028 139.661 27.5495C140.128 27.5828 140.592 27.6273 141.052 27.6831C138.771 27.4076 136.465 27.4076 134.184 27.6831C134.644 27.6274 135.108 27.5829 135.575 27.5495C136.217 28.5028 137.415 30.7038 137.415 33.8547C137.415 35.9497 137.072 38.4901 132.391 38.4901C127.711 38.4901 127.368 35.9497 127.368 33.8547C127.368 31.8154 127.87 30.1742 128.398 29.0114C128.824 28.8649 129.254 28.7283 129.689 28.6017C128.249 29.0208 126.844 29.5544 125.489 30.1975C125.572 30.1579 125.656 30.1186 125.74 30.0797C126.291 31.108 126.93 32.7655 126.93 34.9294C126.93 36.7834 126.626 39.0315 122.485 39.0315C118.634 39.0315 118.101 37.0888 118.045 35.3259C118.096 35.2773 118.147 35.2288 118.199 35.1806C117.288 36.0379 116.436 36.9541 115.646 37.9233C116.157 37.296 116.694 36.6916 117.257 36.11C117.872 36.977 118.31 37.9573 118.545 38.9943C118.869 40.398 119.031 42.1532 115.895 42.8757C114.202 43.2659 113.242 42.9643 112.665 42.3834C112.819 42.0991 112.977 41.8177 113.139 41.5393C112.845 42.0428 112.567 42.5559 112.303 43.0787C112.361 42.9646 112.419 42.851 112.478 42.7378C112.765 43.3166 112.983 43.9274 113.128 44.5573C113.451 45.9611 113.613 47.7163 110.477 48.4388C110.398 48.4571 110.321 48.4735 110.245 48.4887C110.446 47.7347 110.676 46.9936 110.937 46.2653C109.601 50.017 109.069 54.0077 109.375 57.9785C109.681 61.9492 110.819 65.8112 112.714 69.3136C113.204 68.9438 113.966 68.7843 115.198 69.0682C116.523 69.3734 117.135 69.9017 117.381 70.5001C121.542 63.8556 128.485 58.8514 135.641 59.1036C136.669 59.1398 137.618 59.6937 137.618 60.7619C137.618 59.6938 138.566 59.1398 139.595 59.1036Z" fill="black"/>
<path d="M137.618 84.3C131.044 84.2958 124.673 82.0193 119.585 77.8561C114.497 73.6928 111.005 67.8989 109.699 61.4556C108.394 55.0124 109.356 48.316 112.423 42.5009C115.489 36.6857 120.471 32.1093 126.526 29.5468C133.489 26.605 141.337 26.55 148.341 29.394C155.345 32.2379 160.933 37.7478 163.875 44.7116C166.816 51.6753 166.871 59.5225 164.027 66.5268C161.183 73.5311 155.674 79.1187 148.71 82.0605C145.201 83.5457 141.428 84.3074 137.618 84.3ZM137.618 27.6454C122.091 27.6454 109.459 40.2772 109.459 55.8037C109.459 71.3302 122.091 83.962 137.618 83.962C153.144 83.962 165.776 71.3302 165.776 55.8037C165.776 40.2771 153.144 27.6454 137.618 27.6454Z" fill="black"/>
<path fill-rule="evenodd" clip-rule="evenodd" d="M137.618 84.3C137.426 84.3 137.217 84.2974 136.979 84.2922C136.953 84.2917 136.927 84.2849 136.904 84.2726C136.881 84.2603 136.86 84.2427 136.845 84.2213C136.83 84.1998 136.82 84.1751 136.816 84.1491C136.812 84.1231 136.814 84.0965 136.822 84.0714C137.128 83.1162 137.283 82.1189 137.281 81.1158C137.281 79.3449 136.973 77.4557 133.3 77.4557C129.627 77.4557 129.319 79.3449 129.319 81.1158C129.319 81.667 129.365 82.2173 129.458 82.7608C129.569 82.7944 129.68 82.8273 129.791 82.8594L129.795 82.8604C129.837 82.8732 129.873 82.9024 129.894 82.9414C129.915 82.9805 129.92 83.0263 129.908 83.069C129.896 83.1117 129.867 83.1479 129.828 83.1696C129.79 83.1913 129.744 83.1969 129.701 83.1851C129.548 83.1412 129.4 83.097 129.26 83.054L129.253 83.0517C128.967 82.9641 128.683 82.8721 128.404 82.7769C128.363 82.7629 128.329 82.7336 128.309 82.6952C128.289 82.6568 128.284 82.6122 128.296 82.5705C128.512 81.8085 128.621 81.02 128.62 80.2279C128.62 78.6702 128.349 77.0083 125.117 77.0083C122.391 77.0083 121.856 78.2294 121.691 79.1478C121.686 79.1757 121.674 79.2018 121.657 79.2239C121.639 79.2459 121.616 79.2631 121.59 79.274C121.564 79.2849 121.535 79.289 121.507 79.286C121.479 79.283 121.452 79.273 121.429 79.2569C121.288 79.1598 121.144 79.0581 120.989 78.9462C120.954 78.9214 120.93 78.8848 120.922 78.8433C120.913 78.8019 120.921 78.7588 120.942 78.7224C121.291 78.1355 121.546 77.4978 121.698 76.8322C121.965 75.6705 122.049 74.3845 119.635 73.8284C118.771 73.6295 118.083 73.6427 117.588 73.8679C117.202 74.0436 116.917 74.3546 116.716 74.8182C116.705 74.8442 116.687 74.867 116.665 74.8844C116.643 74.9018 116.616 74.9133 116.588 74.9179C116.56 74.9225 116.532 74.92 116.505 74.9106C116.478 74.9012 116.454 74.8853 116.435 74.8642L116.415 74.8418L116.411 74.8367C116.361 74.7821 116.312 74.7276 116.264 74.6725C116.239 74.6443 116.224 74.6085 116.222 74.5709C116.219 74.5333 116.23 74.496 116.251 74.4649C116.712 73.7899 117.041 73.0339 117.222 72.2367C117.351 71.6782 117.44 71.089 117.224 70.5646C117.214 70.5397 117.21 70.5128 117.212 70.486C117.214 70.4592 117.223 70.4333 117.237 70.4105C119.376 66.9954 122.162 64.1127 125.295 62.0741C128.637 59.8994 132.216 58.8138 135.647 58.9348C136.458 58.9633 137.274 59.3059 137.617 60.0019C137.961 59.3059 138.777 58.9633 139.588 58.9348C143.019 58.8134 146.598 59.8994 149.94 62.0741C153.072 64.1127 155.859 66.9954 157.998 70.4105C158.012 70.4333 158.021 70.4592 158.023 70.486C158.025 70.5128 158.021 70.5397 158.011 70.5646C157.795 71.089 157.884 71.6782 158.013 72.2367C158.193 73.034 158.523 73.7899 158.984 74.4649C159.005 74.496 159.016 74.5333 159.013 74.5709C159.011 74.6085 158.996 74.6443 158.971 74.6725C158.922 74.7281 158.873 74.7833 158.823 74.8382L158.8 74.864C158.781 74.885 158.757 74.901 158.73 74.9103C158.703 74.9197 158.675 74.9222 158.647 74.9176C158.619 74.9131 158.593 74.9016 158.57 74.8842C158.548 74.8668 158.53 74.8441 158.519 74.8181C158.318 74.3544 158.033 74.0435 157.647 73.8677C157.153 73.6426 156.464 73.6293 155.6 73.8283C154.493 74.0834 153.823 74.5072 153.55 75.124C153.316 75.6558 153.405 76.2592 153.537 76.832C153.689 77.4976 153.944 78.1354 154.293 78.7224C154.315 78.7587 154.322 78.8019 154.313 78.8433C154.305 78.8847 154.281 78.9214 154.247 78.9461C154.091 79.0581 153.947 79.1598 153.807 79.2569C153.783 79.273 153.756 79.283 153.728 79.286C153.7 79.2889 153.672 79.2848 153.646 79.274C153.619 79.2631 153.596 79.2459 153.579 79.2238C153.561 79.2018 153.549 79.1756 153.544 79.1478C153.379 78.2293 152.844 77.0083 150.119 77.0083C146.886 77.0083 146.615 78.6702 146.615 80.2279C146.614 81.02 146.723 81.8084 146.939 82.5705C146.951 82.6121 146.947 82.6568 146.927 82.6952C146.907 82.7336 146.873 82.7628 146.832 82.7768C146.553 82.872 146.269 82.9641 145.983 83.0517L145.976 83.054C145.834 83.0974 145.69 83.1403 145.534 83.1851C145.491 83.1969 145.446 83.1913 145.407 83.1696C145.368 83.1479 145.339 83.1117 145.327 83.069C145.315 83.0263 145.32 82.9805 145.341 82.9414C145.362 82.9024 145.398 82.8732 145.441 82.8604C145.553 82.8279 145.665 82.7947 145.778 82.7607C145.87 82.2173 145.916 81.667 145.916 81.1158C145.916 79.3449 145.608 77.4556 141.935 77.4556C138.262 77.4556 137.955 79.3449 137.955 81.1158C137.952 82.1189 138.107 83.1161 138.413 84.0714C138.421 84.0964 138.423 84.123 138.419 84.1491C138.415 84.1751 138.405 84.1998 138.39 84.2212C138.375 84.2427 138.355 84.2603 138.331 84.2726C138.308 84.2849 138.282 84.2916 138.256 84.2922C138.019 84.2974 137.81 84.3 137.618 84.3ZM137.618 83.962C137.491 83.962 137.356 83.9608 137.211 83.9586C137.47 83.0798 137.607 82.1693 137.618 81.2531C137.628 82.1694 137.765 83.0798 138.025 83.9586C137.879 83.9608 137.745 83.962 137.618 83.962ZM145.595 78.451C144.924 77.5537 143.727 77.1177 141.935 77.1177C140.144 77.1177 138.946 77.5538 138.276 78.451C137.731 79.1797 137.628 80.0767 137.618 80.9524C137.608 80.0769 137.505 79.1797 136.96 78.451C136.289 77.5537 135.092 77.1176 133.3 77.1176C131.508 77.1176 130.311 77.5538 129.64 78.451C129.061 79.2251 128.982 80.1892 128.982 81.1158C128.981 81.6291 129.02 82.1417 129.097 82.6492C128.952 82.6031 128.807 82.556 128.664 82.5079C128.86 81.7639 128.959 80.9975 128.958 80.228C128.958 79.4046 128.887 78.5477 128.371 77.8581C127.773 77.059 126.709 76.6703 125.117 76.6703C123.867 76.6703 122.951 76.9081 122.318 77.3971C121.866 77.7457 121.569 78.2174 121.413 78.8337C121.38 78.8101 121.345 78.7858 121.311 78.7611C121.638 78.1811 121.879 77.557 122.027 76.908C122.166 76.3084 122.27 75.6114 121.994 74.9876C121.676 74.2665 120.929 73.7796 119.711 73.499C118.624 73.2485 117.791 73.3143 117.196 73.7024C117.13 73.7452 117.067 73.7919 117.007 73.8425C117.044 73.7677 117.08 73.6922 117.114 73.6162C117.303 73.1974 117.449 72.7607 117.552 72.3126C117.68 71.755 117.78 71.1101 117.569 70.5186C122.022 63.4544 129.105 59.0417 135.635 59.2726C136.538 59.3043 137.449 59.7772 137.449 60.762C137.449 60.8068 137.467 60.8498 137.498 60.8815C137.53 60.9132 137.573 60.931 137.618 60.931C137.663 60.931 137.706 60.9132 137.737 60.8815C137.769 60.8498 137.787 60.8068 137.787 60.762C137.787 59.7772 138.698 59.3043 139.601 59.2726C146.131 59.0419 153.214 63.4543 157.667 70.5186C157.455 71.11 157.555 71.7549 157.684 72.3126C157.805 72.8421 157.987 73.3555 158.228 73.8424C157.625 73.3327 156.731 73.2209 155.524 73.499C154.306 73.7796 153.559 74.2665 153.241 74.9876C152.966 75.6114 153.07 76.3084 153.208 76.908C153.356 77.557 153.598 78.1811 153.925 78.7611L153.914 78.7685L153.878 78.7944L153.822 78.8337C153.667 78.2176 153.369 77.7459 152.918 77.3971C152.285 76.908 151.369 76.6703 150.119 76.6703C148.527 76.6703 147.462 77.0589 146.864 77.8581C146.349 78.5477 146.278 79.4046 146.278 80.228C146.277 80.9975 146.375 81.7639 146.572 82.5079C146.428 82.5561 146.284 82.6032 146.138 82.6492C146.215 82.1417 146.254 81.6291 146.254 81.1158C146.254 80.1892 146.174 79.2251 145.595 78.451Z" fill="#FF8389"/>
<path fill-rule="evenodd" clip-rule="evenodd" d="M145.595 78.451C144.924 77.5537 143.727 77.1177 141.935 77.1177C140.144 77.1177 138.946 77.5538 138.276 78.451C137.731 79.1797 137.628 80.0767 137.618 80.9524C137.608 80.0769 137.505 79.1797 136.96 78.451C136.289 77.5537 135.092 77.1176 133.3 77.1176C131.508 77.1176 130.311 77.5538 129.64 78.451C129.061 79.2251 128.982 80.1892 128.982 81.1158C128.981 81.6291 129.02 82.1417 129.097 82.6492C128.952 82.6031 128.807 82.556 128.664 82.5079C128.86 81.7639 128.959 80.9975 128.958 80.228C128.958 79.4046 128.887 78.5477 128.371 77.8581C127.773 77.059 126.709 76.6703 125.117 76.6703C123.867 76.6703 122.951 76.9081 122.318 77.3971C121.866 77.7457 121.569 78.2174 121.413 78.8337C121.38 78.8101 121.345 78.7858 121.311 78.7611C121.638 78.1811 121.879 77.557 122.027 76.908C122.166 76.3084 122.27 75.6114 121.994 74.9876C121.676 74.2665 120.929 73.7796 119.711 73.499C118.624 73.2485 117.791 73.3143 117.196 73.7024L117.114 73.6162C117.303 73.1974 117.449 72.7607 117.552 72.3126C117.68 71.755 117.78 71.1101 117.569 70.5186C122.022 63.4544 129.105 59.0417 135.635 59.2726C136.538 59.3043 137.449 59.7772 137.449 60.762C137.449 60.8068 137.467 60.8498 137.498 60.8815C137.53 60.9132 137.573 60.931 137.618 60.931C137.663 60.931 137.706 60.9132 137.737 60.8815C137.769 60.8498 137.787 60.8068 137.787 60.762C137.787 59.7772 138.698 59.3043 139.601 59.2726C146.131 59.0419 153.214 63.4543 157.667 70.5186C157.455 71.11 157.555 71.7549 157.684 72.3126C157.805 72.8421 157.987 73.3555 158.228 73.8424C157.625 73.3327 156.731 73.2209 155.524 73.499C154.306 73.7796 153.559 74.2665 153.241 74.9876C152.966 75.6114 153.07 76.3084 153.208 76.908C153.356 77.557 153.598 78.1811 153.925 78.7611L153.914 78.7685L153.878 78.7944L153.822 78.8337C153.667 78.2176 153.369 77.7459 152.918 77.3971C152.285 76.908 151.369 76.6703 150.119 76.6703C148.527 76.6703 147.462 77.0589 146.864 77.8581C146.349 78.5477 146.278 79.4046 146.278 80.228C146.277 80.9975 146.375 81.7639 146.572 82.5079C146.428 82.5561 146.284 82.6032 146.138 82.6492C146.215 82.1417 146.254 81.6291 146.254 81.1158C146.254 80.1892 146.174 79.2251 145.595 78.451Z" fill="#FF8389"/>
<path d="M117.114 73.6162C117.08 73.6922 117.044 73.7677 117.007 73.8425C117.067 73.7919 117.13 73.7452 117.196 73.7024L117.114 73.6162Z" fill="black"/>
<path d="M132.391 38.6592C130.234 38.6592 128.794 38.1359 127.989 37.0593C127.294 36.1307 127.199 34.9703 127.199 33.8548C127.199 32.1216 127.55 30.4685 128.244 28.9416C128.253 28.9206 128.267 28.9019 128.284 28.8864C128.301 28.8709 128.321 28.8591 128.343 28.8516C130.675 28.0501 133.102 27.5558 135.563 27.3812C135.592 27.3791 135.622 27.3849 135.649 27.3979C135.676 27.411 135.698 27.4309 135.715 27.4556C136.413 28.4919 137.583 30.7014 137.583 33.8552C137.583 34.9707 137.488 36.131 136.793 37.0597C135.988 38.1359 134.548 38.6592 132.391 38.6592ZM128.522 29.1476C127.868 30.6119 127.537 32.1952 127.537 33.8548C127.537 34.912 127.624 36.0074 128.26 36.8569C128.996 37.8422 130.348 38.3212 132.391 38.3212C134.434 38.3212 135.785 37.8422 136.522 36.8569C137.158 36.0074 137.245 34.912 137.245 33.8548C137.245 30.8713 136.169 28.7614 135.489 27.7254C133.115 27.9022 130.774 28.3801 128.522 29.1476Z" fill="black"/>
<path d="M160.722 43.2217C160.298 43.2217 159.825 43.1613 159.302 43.0406C157.84 42.7036 156.944 42.1208 156.563 41.2588C156.235 40.5152 156.351 39.7128 156.525 38.9565C156.765 37.8976 157.212 36.8968 157.841 36.0119C157.855 35.9917 157.874 35.9749 157.896 35.9628C157.917 35.9506 157.941 35.9434 157.966 35.9415C157.991 35.9397 158.015 35.9433 158.039 35.9521C158.062 35.9609 158.083 35.9747 158.1 35.9925C159.921 37.8745 161.476 39.998 162.719 42.3033C162.736 42.3352 162.742 42.3718 162.737 42.4077C162.732 42.4436 162.715 42.4768 162.69 42.5025C162.214 42.9829 161.564 43.2216 160.722 43.2217ZM158 36.3761C157.458 37.1834 157.07 38.084 156.855 39.0324C156.527 40.4555 156.425 42.0307 159.378 42.7112C160.751 43.0274 161.728 42.9094 162.36 42.35C161.175 40.1761 159.709 38.1676 158 36.3761Z" fill="black"/>
<path d="M164.991 48.6579C164.98 48.6578 164.969 48.6567 164.958 48.6545C164.873 48.6374 164.795 48.6207 164.72 48.6035C163.258 48.2666 162.362 47.6837 161.981 46.8218C161.653 46.0781 161.769 45.2758 161.943 44.5194C162.091 43.8766 162.313 43.2533 162.606 42.6625C162.62 42.6346 162.642 42.6111 162.668 42.5946C162.695 42.578 162.725 42.5691 162.756 42.5688H162.758C162.789 42.5688 162.819 42.5773 162.845 42.5934C162.872 42.6094 162.893 42.6324 162.908 42.6598C163.866 44.5003 164.619 46.4404 165.154 48.4452C165.161 48.4703 165.162 48.4965 165.157 48.5219C165.152 48.5473 165.141 48.5712 165.125 48.5917C165.109 48.6123 165.089 48.6289 165.066 48.6404C165.043 48.6518 165.017 48.6579 164.991 48.6579ZM162.764 43.1209C162.554 43.5956 162.389 44.0894 162.273 44.5955C161.946 46.0119 161.843 47.579 164.755 48.2647C164.262 46.4888 163.595 44.7659 162.764 43.1209Z" fill="black"/>
<path d="M142.844 38.6591C140.687 38.6591 139.247 38.1358 138.442 37.0592C137.748 36.1306 137.652 34.9702 137.652 33.8547C137.652 30.7009 138.823 28.4915 139.521 27.4551C139.537 27.4304 139.56 27.4105 139.587 27.3974C139.613 27.3844 139.643 27.3786 139.673 27.3807C142.133 27.5555 144.56 28.0499 146.893 28.8515C146.915 28.859 146.935 28.8708 146.952 28.8863C146.969 28.9017 146.982 28.9205 146.992 28.9414C147.685 30.4684 148.037 32.1215 148.037 33.8547C148.037 34.9702 147.941 36.1306 147.247 37.0592C146.441 38.1358 145.001 38.6591 142.844 38.6591ZM139.747 27.7252C139.066 28.7613 137.99 30.8712 137.99 33.8547C137.99 34.9119 138.078 36.0072 138.713 36.8568C139.45 37.8421 140.801 38.3211 142.845 38.3211C144.888 38.3211 146.239 37.8421 146.976 36.8568C147.611 36.0072 147.699 34.9119 147.699 33.8547C147.699 32.1951 147.368 30.6118 146.714 29.1475C144.461 28.38 142.12 27.9021 139.747 27.7252Z" fill="black"/>
<path d="M152.751 39.2005C150.836 39.2005 149.556 38.7348 148.84 37.7769C148.222 36.9505 148.137 35.92 148.137 34.9294C148.137 32.7198 148.795 31.0291 149.347 29.9998C149.367 29.9619 149.401 29.9331 149.442 29.9195C149.483 29.9058 149.527 29.9082 149.566 29.9263C152.42 31.2461 155.036 33.0293 157.307 35.2037C157.324 35.2201 157.338 35.24 157.347 35.2619C157.356 35.2839 157.36 35.3075 157.359 35.3313C157.334 36.1366 157.215 37.1621 156.52 37.9514C155.78 38.792 154.547 39.2005 152.751 39.2005ZM149.57 30.301C149.054 31.3062 148.475 32.8884 148.475 34.9294C148.475 36.8323 148.805 38.8625 152.751 38.8625C154.444 38.8625 155.595 38.4914 156.267 37.7281C156.87 37.0431 156.99 36.1322 157.019 35.3958C154.826 33.3079 152.311 31.5875 149.57 30.301Z" fill="black"/>
<path d="M114.513 43.2216C113.671 43.2216 113.022 42.983 112.545 42.5025C112.52 42.4768 112.503 42.4436 112.498 42.4077C112.493 42.3718 112.499 42.3352 112.517 42.3033C113.76 39.998 115.314 37.8746 117.135 35.9925C117.152 35.9747 117.173 35.9609 117.197 35.9521C117.22 35.9433 117.245 35.9397 117.269 35.9415C117.294 35.9434 117.318 35.9506 117.34 35.9628C117.361 35.9749 117.38 35.9917 117.394 36.0119C118.023 36.8968 118.47 37.8976 118.71 38.9565C118.884 39.7128 119 40.5153 118.672 41.2588C118.292 42.1208 117.396 42.7036 115.933 43.0406C115.41 43.1612 114.936 43.2215 114.513 43.2216ZM112.876 42.35C113.507 42.9094 114.485 43.0274 115.857 42.7112C117.209 42.3998 118.028 41.8801 118.363 41.1224C118.651 40.4692 118.542 39.7319 118.381 39.0324C118.166 38.084 117.778 37.1835 117.236 36.3761C115.527 38.1677 114.061 40.1762 112.876 42.35Z" fill="black"/>
<path d="M110.244 48.6577C110.218 48.6578 110.193 48.6518 110.17 48.6403C110.146 48.6289 110.126 48.6123 110.11 48.5917C110.095 48.5712 110.084 48.5473 110.079 48.5219C110.074 48.4965 110.074 48.4702 110.081 48.4452C110.616 46.4403 111.369 44.5002 112.328 42.6597C112.342 42.6323 112.364 42.6093 112.391 42.5932C112.418 42.5772 112.448 42.5688 112.479 42.5688C112.51 42.5691 112.541 42.578 112.567 42.5945C112.594 42.6111 112.615 42.6346 112.629 42.6625C112.922 43.2533 113.145 43.8765 113.292 44.5194C113.466 45.2758 113.582 46.0782 113.254 46.8218C112.874 47.6837 111.978 48.2665 110.515 48.6035C110.441 48.6207 110.363 48.6373 110.278 48.6544C110.267 48.6566 110.256 48.6577 110.244 48.6577ZM112.471 43.1207C111.64 44.7657 110.973 46.4886 110.481 48.2644C113.392 47.5788 113.289 46.0116 112.963 44.5953C112.846 44.0891 112.682 43.5953 112.471 43.1207Z" fill="black"/>
<path d="M122.484 39.2005C120.688 39.2005 119.455 38.7919 118.715 37.9514C118.02 37.1621 117.902 36.1365 117.876 35.3312C117.875 35.3075 117.88 35.2839 117.889 35.2619C117.898 35.2399 117.911 35.2201 117.928 35.2037C120.2 33.0293 122.815 31.246 125.669 29.9262C125.708 29.9081 125.753 29.9057 125.794 29.9193C125.835 29.933 125.869 29.9618 125.889 29.9998C126.441 31.029 127.099 32.7197 127.099 34.9293C127.099 35.9198 127.014 36.9505 126.396 37.7768C125.679 38.7348 124.4 39.2005 122.484 39.2005ZM118.217 35.3958C118.245 36.1321 118.366 37.043 118.969 37.7282C119.641 38.4915 120.791 38.8626 122.484 38.8626C126.43 38.8626 126.761 36.8324 126.761 34.9295C126.761 32.8885 126.182 31.3063 125.665 30.3011C122.925 31.5876 120.409 33.3079 118.217 35.3958Z" fill="black"/>
<path d="M133.3 77.0181C135.104 77.0181 136.341 77.4564 137.04 78.3911C137.64 79.1935 137.719 80.1875 137.719 81.1157L137.712 81.5083C137.678 82.4241 137.519 83.3317 137.239 84.2056C137.222 84.2596 137.187 84.3079 137.142 84.3413C137.096 84.3748 137.039 84.3921 136.982 84.3921H136.977C134.35 84.3358 131.743 83.9181 129.23 83.1499C129.183 83.1354 129.141 83.1077 129.108 83.0708C129.076 83.034 129.053 82.9894 129.044 82.9409C128.935 82.339 128.882 81.7274 128.882 81.1157C128.882 80.1876 128.96 79.1935 129.56 78.3911C130.258 77.4565 131.496 77.0181 133.3 77.0181ZM133.3 77.5562C131.479 77.5562 130.521 78.0242 130.012 78.6831C129.498 79.3476 129.42 80.2309 129.42 81.1157C129.42 81.6408 129.462 82.1649 129.547 82.6831C131.898 83.3867 134.331 83.7777 136.784 83.8481C137.048 82.9613 137.183 82.0411 137.181 81.1157C137.181 80.231 137.102 79.3476 136.589 78.6831C136.08 78.0242 135.121 77.5562 133.3 77.5562Z" fill="black" stroke="black" stroke-width="0.2"/>
<path d="M155.502 73.4014C156.366 73.2023 157.085 73.1977 157.658 73.4033C158.236 73.6105 158.654 74.0271 158.921 74.6445C158.942 74.6917 158.948 74.7442 158.94 74.7949C158.931 74.8458 158.909 74.8934 158.874 74.9316C157.502 76.4556 155.97 77.8287 154.306 79.0273C154.26 79.0603 154.205 79.0781 154.149 79.0781C154.13 79.0781 154.111 79.077 154.093 79.0732C154.057 79.0655 154.023 79.0498 153.992 79.0283C153.977 79.0176 153.963 79.0058 153.95 78.9922L153.917 78.9473C153.545 78.3212 153.273 77.6407 153.111 76.9307C152.972 76.3297 152.86 75.6035 153.15 74.9473C153.487 74.1837 154.272 73.6848 155.502 73.4014ZM156.698 73.7881C156.336 73.7934 155.976 73.8401 155.624 73.9258H155.622C154.526 74.1785 153.895 74.5913 153.642 75.1641C153.422 75.6628 153.503 76.2369 153.635 76.8096C153.763 77.3678 153.965 77.9061 154.234 78.4111C155.725 77.3128 157.105 76.0714 158.353 74.7031C158.167 74.3449 157.922 74.103 157.607 73.959C157.36 73.8468 157.057 73.7881 156.698 73.7881Z" fill="black" stroke="black" stroke-width="0.2"/>
<path d="M159.978 68.8058C161.155 68.5347 162.049 68.6197 162.684 69.0998C162.735 69.1386 162.771 69.1942 162.784 69.257C162.798 69.32 162.789 69.386 162.758 69.4426C161.724 71.3422 160.48 73.1194 159.047 74.7394C159.022 74.7678 158.991 74.7902 158.956 74.8058C158.921 74.8215 158.883 74.8303 158.845 74.8303C158.842 74.8303 158.834 74.8301 158.825 74.8293C158.786 74.8264 158.747 74.8146 158.713 74.7951C158.695 74.785 158.678 74.7728 158.663 74.759L158.623 74.7131C158.131 73.9928 157.779 73.1859 157.586 72.3351C157.448 71.7342 157.335 71.008 157.625 70.3517C157.962 69.5882 158.747 69.0893 159.978 68.8058ZM162.163 69.4035C161.688 69.1511 161.015 69.1189 160.098 69.3303C158.906 69.6049 158.359 70.0537 158.13 70.55C157.898 71.0526 157.977 71.6339 158.11 72.2141C158.263 72.8836 158.522 73.5243 158.877 74.1115C160.13 72.658 161.231 71.0809 162.163 69.4035Z" fill="black" stroke="black" stroke-width="0.2"/>
<path d="M141.935 77.0179C143.739 77.0179 144.976 77.4563 145.675 78.391C146.275 79.1934 146.354 80.1873 146.354 81.1156C146.354 81.3013 146.349 81.4869 146.339 81.6722C146.316 82.0971 146.267 82.5206 146.191 82.9398C146.182 82.988 146.16 83.0339 146.128 83.0706C146.095 83.1075 146.053 83.1353 146.005 83.1497C143.493 83.9181 140.885 84.3356 138.258 84.3919L138.256 84.3929L138.253 84.3919C138.196 84.3919 138.14 84.3745 138.094 84.3411C138.048 84.3077 138.014 84.2604 137.997 84.2064C137.875 83.8276 137.777 83.4414 137.702 83.0521L137.701 83.0531L137.684 82.9632C137.572 82.3547 137.516 81.7362 137.517 81.1156L137.521 80.765C137.544 79.942 137.67 79.093 138.195 78.391C138.894 77.4564 140.131 77.0179 141.935 77.0179ZM145.984 81.887C145.961 82.1852 145.927 82.4826 145.877 82.7777L145.866 82.8382L145.806 82.8568C143.395 83.5843 140.897 83.9858 138.378 84.0511L138.302 84.0531L138.28 83.9809C138.183 83.6656 138.104 83.3456 138.041 83.0229L137.902 83.0345C137.975 83.4092 138.07 83.7802 138.187 84.1449C138.192 84.1586 138.201 84.1705 138.212 84.179C138.224 84.1875 138.238 84.1927 138.253 84.1927C140.862 84.1368 143.452 83.7212 145.947 82.9583C145.959 82.9546 145.97 82.9472 145.978 82.9378C145.986 82.9284 145.991 82.9169 145.994 82.9046L146.045 82.596C146.083 82.3401 146.109 82.0826 146.128 81.8245L145.984 81.887ZM141.935 77.556C140.114 77.556 139.156 78.0241 138.647 78.6829C138.134 79.3474 138.055 80.2307 138.055 81.1156C138.054 81.5643 138.085 82.0122 138.147 82.4554L138.219 82.8979L138.331 83.4124C138.367 83.5589 138.408 83.7042 138.451 83.849C140.904 83.7786 143.337 83.3865 145.688 82.6829C145.735 82.3941 145.771 82.1036 145.792 81.8119C145.808 81.5804 145.816 81.3478 145.816 81.1156C145.816 80.2308 145.737 79.3474 145.224 78.6829C144.715 78.0241 143.757 77.556 141.935 77.556Z" fill="black" stroke="black" stroke-width="0.2"/>
<path d="M150.118 76.5707C151.379 76.5707 152.321 76.8097 152.979 77.3178C153.514 77.7309 153.839 78.308 153.976 79.0707C153.985 79.1216 153.979 79.1744 153.959 79.2221C153.939 79.2697 153.906 79.3109 153.864 79.3403C151.704 80.8341 149.349 82.0224 146.864 82.8715C146.836 82.881 146.806 82.8862 146.777 82.8862C146.718 82.8861 146.662 82.8665 146.615 82.8315C146.592 82.8138 146.571 82.7929 146.555 82.769L146.519 82.6909C146.291 81.8897 146.177 81.0607 146.178 80.228L146.182 79.9164C146.203 79.1841 146.315 78.4265 146.784 77.7983C147.41 76.9618 148.514 76.5708 150.118 76.5707ZM150.118 77.1088C148.518 77.1089 147.679 77.5199 147.235 78.0952C146.785 78.6762 146.716 79.4496 146.716 80.228C146.715 80.915 146.799 81.5993 146.963 82.2661C149.245 81.4598 151.412 80.3608 153.41 78.9965C153.314 78.5757 153.123 78.1218 152.672 77.7651C152.196 77.3884 151.416 77.1088 150.118 77.1088Z" fill="black" stroke="black" stroke-width="0.2"/>
<path d="M117.577 73.4033C118.151 73.1978 118.869 73.2023 119.734 73.4014C120.964 73.6848 121.749 74.1837 122.086 74.9473C122.376 75.6035 122.264 76.3298 122.125 76.9307C121.963 77.6407 121.691 78.3212 121.318 78.9473C121.299 78.9792 121.274 79.0067 121.243 79.0283C121.228 79.0391 121.211 79.0482 121.194 79.0557L121.142 79.0732L121.087 79.0781C121.031 79.0781 120.976 79.0604 120.93 79.0273C119.265 77.8287 117.733 76.4557 116.36 74.9316C116.326 74.8934 116.303 74.8457 116.295 74.7949C116.287 74.7442 116.293 74.6917 116.314 74.6445C116.581 74.0269 117 73.6105 117.577 73.4033ZM119.612 73.9258C118.864 73.7534 118.263 73.7457 117.813 73.8887L117.629 73.959C117.313 74.103 117.068 74.3453 116.882 74.7041C118.13 76.0723 119.51 77.3138 121.001 78.4121C121.27 77.9068 121.473 77.3681 121.601 76.8096C121.734 76.2294 121.813 75.6481 121.581 75.1455C121.352 74.6492 120.805 74.2004 119.612 73.9258Z" fill="black" stroke="black" stroke-width="0.2"/>
<path d="M112.552 69.0997C113.187 68.6196 114.081 68.5344 115.259 68.8057C116.489 69.0892 117.273 69.5879 117.61 70.3516C117.864 70.926 117.809 71.5539 117.699 72.1046L117.649 72.335C117.48 73.0795 117.19 73.79 116.79 74.4386L116.612 74.713C116.589 74.7466 116.559 74.7749 116.523 74.795C116.488 74.8151 116.448 74.8267 116.407 74.8292H116.4C116.398 74.8293 116.394 74.8302 116.39 74.8302C116.352 74.8302 116.315 74.8213 116.28 74.8057C116.245 74.7901 116.214 74.7679 116.188 74.7393C114.935 73.3219 113.825 71.7842 112.875 70.1495L112.477 69.4425C112.447 69.3859 112.437 69.32 112.451 69.257C112.465 69.1942 112.5 69.1385 112.552 69.0997ZM115.137 69.3302C114.219 69.1188 113.546 69.1507 113.071 69.4035C114.003 71.0809 115.104 72.658 116.357 74.1115C116.712 73.5242 116.973 72.8846 117.125 72.2149C117.258 71.6346 117.337 71.0525 117.105 70.5499C116.876 70.0536 116.33 69.6048 115.137 69.3302Z" fill="black" stroke="black" stroke-width="0.2"/>
<path d="M125.116 76.5707C126.721 76.5707 127.826 76.9619 128.451 77.7983C128.988 78.5162 129.058 79.4029 129.058 80.228L129.053 80.5395C129.032 81.1632 128.946 81.7831 128.797 82.3891L128.717 82.6909C128.701 82.747 128.667 82.7963 128.62 82.8315C128.574 82.8667 128.517 82.8862 128.458 82.8862C128.429 82.8862 128.399 82.8811 128.371 82.8715C125.887 82.0224 123.531 80.8343 121.371 79.3403C121.329 79.311 121.296 79.2696 121.277 79.2221C121.257 79.1744 121.251 79.1216 121.26 79.0707C121.397 78.308 121.721 77.7309 122.256 77.3178C122.914 76.8095 123.856 76.5708 125.116 76.5707ZM125.116 77.1088C123.819 77.1089 123.04 77.3884 122.564 77.7651C122.112 78.1221 121.921 78.5763 121.824 78.9975C123.823 80.3617 125.99 81.4598 128.272 82.2661C128.436 81.5993 128.521 80.915 128.52 80.228C128.52 79.4497 128.45 78.6762 128.001 78.0952C127.556 77.5198 126.717 77.1088 125.116 77.1088Z" fill="black" stroke="black" stroke-width="0.2"/>
<path d="M137.631 59.2004C137.763 59.2003 137.901 59.2208 138.011 59.2678C138.117 59.3133 138.226 59.3982 138.232 59.5374L138.233 59.5452H138.232L137.732 72.304H137.532L137.032 59.5452L137.031 59.5383C137.036 59.3993 137.146 59.3143 137.251 59.2688C137.36 59.2216 137.499 59.2006 137.631 59.2004Z" fill="black" stroke="black" stroke-width="0.2"/>
<path d="M140.14 28.4139C141.18 28.5146 142.213 28.6728 143.235 28.8876C144.255 29.1061 145.274 29.3658 146.235 29.7772C145.991 29.6983 145.737 29.6107 145.489 29.5428C144.872 29.3605 144.224 29.2067 143.596 29.0685C142.456 28.8196 141.29 28.6104 140.14 28.4139Z" fill="black"/>
<path d="M158.11 37.3485C158.794 38.1149 159.434 38.9192 160.044 39.7456C160.648 40.5751 161.231 41.4271 161.698 42.343C161.594 42.1807 161.498 42.0145 161.391 41.8543C160.4 40.3294 159.213 38.8009 158.11 37.3485Z" fill="black"/>
<path d="M149.943 31.2906C150.958 31.8143 151.941 32.3987 152.886 33.0401C154.103 33.8597 155.27 34.7661 156.297 35.8172C156.05 35.6037 155.815 35.3783 155.56 35.1744C155.495 35.1188 155.343 34.9913 155.28 34.9384C153.606 33.5812 151.795 32.3895 149.943 31.2906Z" fill="black"/>
<path d="M135.095 28.4139C133.305 28.7252 131.494 29.0397 129.746 29.5429C129.499 29.6108 129.245 29.6984 129.001 29.7774C129.962 29.366 130.981 29.1062 132.001 28.8876C133.023 28.6728 134.056 28.5146 135.095 28.4139Z" fill="black"/>
<path d="M117.126 37.3485C116.021 38.8027 114.836 40.3279 113.844 41.8543C113.737 42.0145 113.641 42.1809 113.537 42.343C114.004 41.4271 114.587 40.5751 115.192 39.7456C115.801 38.9192 116.442 38.1149 117.126 37.3485Z" fill="black"/>
<path d="M125.292 31.2906C123.44 32.3894 121.63 33.5814 119.955 34.9384C119.89 34.9934 119.741 35.1192 119.675 35.1744C119.421 35.3783 119.186 35.6039 118.939 35.8172C119.965 34.7661 121.133 33.8597 122.35 33.0401C123.295 32.3987 124.277 31.8143 125.292 31.2906Z" fill="black"/>
<path d="M122.294 78.7498C124.005 79.7629 125.745 80.7519 127.593 81.4962C127.718 81.5431 127.842 81.5911 127.965 81.6402C126.687 81.2644 125.481 80.6729 124.322 80.0229C123.628 79.6302 122.946 79.2092 122.294 78.7498Z" fill="black"/>
<path d="M129.942 82.2399C131.707 82.6998 133.506 83.0738 135.323 83.2478C135.395 83.2532 135.56 83.2653 135.633 83.2708C135.907 83.299 136.183 83.3 136.459 83.317C135.215 83.3627 133.968 83.2156 132.748 82.9769C131.797 82.7948 130.86 82.5486 129.942 82.2399Z" fill="black"/>
<path d="M117.395 74.5551C118.547 75.6216 119.722 76.7807 120.994 77.6999C120.298 77.3037 119.679 76.7864 119.082 76.2561C118.487 75.7222 117.924 75.1542 117.395 74.5551Z" fill="black"/>
<path d="M113.582 69.4697C114.503 70.773 115.362 72.1191 116.345 73.378C115.788 72.8036 115.317 72.1521 114.859 71.4979C114.407 70.839 113.974 70.1665 113.582 69.4697Z" fill="black"/>
<path d="M152.942 78.7498C152.29 79.2091 151.608 79.6301 150.914 80.0228C149.754 80.6728 148.549 81.2643 147.27 81.6401C147.394 81.5911 147.518 81.5431 147.642 81.4961C149.49 80.7519 151.23 79.7629 152.941 78.7498H152.942Z" fill="black"/>
<path d="M145.293 82.24C144.375 82.5486 143.438 82.7948 142.487 82.9769C141.267 83.2158 140.02 83.3627 138.776 83.317C139.052 83.3001 139.328 83.299 139.603 83.2708C139.675 83.2654 139.843 83.2528 139.912 83.2478C141.73 83.0737 143.528 82.6999 145.293 82.24Z" fill="black"/>
<path d="M157.841 74.5551C157.311 75.1542 156.748 75.7222 156.153 76.2561C155.557 76.7864 154.937 77.3037 154.241 77.6999C155.512 76.7816 156.69 75.6207 157.841 74.5551Z" fill="black"/>
<path d="M161.654 69.4697C161.262 70.1665 160.829 70.839 160.377 71.4979C159.919 72.1521 159.448 72.8036 158.891 73.378C159.873 72.1191 160.732 70.773 161.654 69.4697Z" fill="black"/>
<path d="M117.132 74.3H116.132V75.3H117.132V74.3Z" fill="black"/>
<path d="M121.311 76.9856L120.132 79.0331L121.227 79.6637L122.406 77.6162L121.311 76.9856Z" fill="black"/>
<path d="M128.634 80.8413L127.928 82.8634L129.121 83.2797L129.827 81.2576L128.634 80.8413Z" fill="black"/>
<path d="M139.44 82.8538L136.112 83.002L136.186 84.6539L139.514 84.5058L139.44 82.8538Z" fill="black"/>
<path d="M154.778 79.2364L153.935 77.8323L153.224 78.2588L154.067 79.6629L154.778 79.2364Z" fill="black"/>
<path d="M144.691 82.2582L145.15 83.5005L147.463 82.6465L147.004 81.4042L144.691 82.2582Z" fill="black"/>
</g>
</g>
<defs>
<clipPath id="clip0_3_187">
<rect width="695" height="121" fill="white"/>
</clipPath>
</defs>
</svg>
